<svg xmlns="http://www.w3.org/2000/svg" viewBox="0 0 64 64" fill="none" role="img" aria-label="شرح الصورة">
  <!-- app-icon rounded background -->
  <rect width="64" height="64" rx="14" fill="#0d9488"/>
  <!-- white document -->
  <path d="M20 14h14l10 10v24a3 3 0 0 1-3 3H20a3 3 0 0 1-3-3V17a3 3 0 0 1 3-3z" fill="#ffffff"/>
  <!-- folded corner -->
  <path d="M34 14l10 10h-7a3 3 0 0 1-3-3v-7z" fill="#cdeae6"/>
  <!-- text lines -->
  <rect x="22" y="30" width="16" height="2.8" rx="1.4" fill="#0d9488"/>
  <rect x="22" y="36" width="16" height="2.8" rx="1.4" fill="#0d9488"/>
  <rect x="22" y="42" width="10" height="2.8" rx="1.4" fill="#0d9488" opacity=".55"/>
  <!-- amber AI spark -->
  <path d="M47 17c.8 4 1.6 4.8 5.6 5.6-4 .8-4.8 1.6-5.6 5.6-.8-4-1.6-4.8-5.6-5.6 4-.8 4.8-1.6 5.6-5.6z" fill="#f59e0b"/>
</svg>
