<svg xmlns="http://www.w3.org/2000/svg" viewBox="0 0 260 210" fill="none" role="img" aria-label="قراءة المستند">
  <!-- soft backdrop -->
  <ellipse cx="130" cy="118" rx="120" ry="88" fill="#d8f3ee"/>
  <circle cx="44" cy="118" r="4" fill="#14b8a6"/>
  <circle cx="216" cy="120" r="5" fill="#5eead4"/>

  <!-- document card (slightly tilted) -->
  <g transform="rotate(-6 120 110)">
    <rect x="62" y="40" width="116" height="140" rx="14" fill="#ffffff" stroke="#cfeee8" stroke-width="2"/>
    <path d="M62 54a14 14 0 0 1 14-14h88a14 14 0 0 1 14 14v20H62z" fill="#0d9488"/>
    <rect x="78" y="50" width="62" height="8" rx="4" fill="#ffffff" opacity=".9"/>
    <rect x="78" y="92" width="84" height="7" rx="3.5" fill="#dbe7e4"/>
    <rect x="78" y="106" width="84" height="7" rx="3.5" fill="#dbe7e4"/>
    <rect x="78" y="120" width="58" height="7" rx="3.5" fill="#dbe7e4"/>
    <rect x="78" y="140" width="42" height="7" rx="3.5" fill="#f4c98a"/>
  </g>

  <!-- magnifier with a check -->
  <circle cx="150" cy="138" r="30" fill="#0d9488" fill-opacity="0.12" stroke="#0d9488" stroke-width="5"/>
  <path d="M139 139l8 8 16-17" stroke="#0d9488" stroke-width="5" stroke-linecap="round" stroke-linejoin="round"/>
  <line x1="172" y1="160" x2="196" y2="184" stroke="#0d9488" stroke-width="9" stroke-linecap="round"/>

  <!-- sparkles -->
  <path d="M52 58c1.1 4.4 2.2 5.5 6.6 6.6-4.4 1.1-5.5 2.2-6.6 6.6-1.1-4.4-2.2-5.5-6.6-6.6 4.4-1.1 5.5-2.2 6.6-6.6z" fill="#f59e0b"/>
  <path d="M202 66c.8 3.2 1.6 4 4.8 4.8-3.2.8-4 1.6-4.8 4.8-.8-3.2-1.6-4-4.8-4.8 3.2-.8 4-1.6 4.8-4.8z" fill="#f59e0b"/>
</svg>
