<svg xmlns="http://www.w3.org/2000/svg" viewBox="0 0 64 64" fill="none" role="img" aria-label="شرح الصورة">
  <!-- document -->
  <path d="M14 10h16l10 10v30a4 4 0 0 1-4 4H14a4 4 0 0 1-4-4V14a4 4 0 0 1 4-4z" fill="#0d9488"/>
  <!-- folded corner -->
  <path d="M30 10l10 10h-6a4 4 0 0 1-4-4v-6z" fill="#0b6e66"/>
  <!-- text lines -->
  <rect x="16" y="30" width="18" height="3" rx="1.5" fill="#ffffff"/>
  <rect x="16" y="37" width="18" height="3" rx="1.5" fill="#ffffff"/>
  <rect x="16" y="44" width="11" height="3" rx="1.5" fill="#ffffff" opacity=".7"/>
  <!-- AI spark -->
  <path d="M49 8c1 5.2 2.2 6.4 7.4 7.4-5.2 1-6.4 2.2-7.4 7.4-1-5.2-2.2-6.4-7.4-7.4 5.2-1 6.4-2.2 7.4-7.4z" fill="#f59e0b"/>
</svg>
